<?xml version="1.0" encoding="utf-8"?>
<!-- Generator: Adobe Illustrator 24.3.0, SVG Export Plug-In . SVG Version: 6.00 Build 0)  -->
<svg version="1.1" id="Layer_1" xmlns="http://www.w3.org/2000/svg" xmlns:xlink="http://www.w3.org/1999/xlink" x="0px" y="0px"
	 viewBox="0 0 800 800" style="enable-background:new 0 0 800 800;" xml:space="preserve">
<style type="text/css">
	.st0{fill-rule:evenodd;clip-rule:evenodd;}
</style>
<path class="st0" d="M275,125h-50v50h-57.32c-11.32,0-22.17,4.5-30.18,12.5l0,0c-8,8-12.5,18.86-12.5,30.18v414.64
	c0,11.32,4.5,22.17,12.5,30.18h0c8,8,18.86,12.5,30.18,12.5h464.64c11.32,0,22.17-4.5,30.18-12.5l0,0c8-8,12.5-18.86,12.5-30.18
	V217.68c0-11.32-4.5-22.17-12.5-30.18v0c-8-8-18.86-12.5-30.18-12.5H575v-50h-50v50H275V125z M175,325v-84.44
	c0-8.59,6.96-15.56,15.56-15.56h418.89c8.59,0,15.56,6.96,15.56,15.56V325H175z M175,375v234c0,8.84,7.16,16,16,16h418
	c8.84,0,16-7.16,16-16V375H175z"/>
</svg>
