<?xml version="1.0" encoding="utf-8"?>
<!-- Generator: Adobe Illustrator 24.3.0, SVG Export Plug-In . SVG Version: 6.00 Build 0)  -->
<svg version="1.1" id="Layer_1" xmlns="http://www.w3.org/2000/svg" xmlns:xlink="http://www.w3.org/1999/xlink" x="0px" y="0px"
	 viewBox="0 0 800 800" style="enable-background:new 0 0 800 800;" xml:space="preserve">
<style type="text/css">
	.st0{stroke:#000000;stroke-width:16.5;stroke-miterlimit:10;}
</style>
<g id="package-send">
	<path class="st0" d="M616.67,100H183.33c-46,0.06-83.28,37.33-83.33,83.33v433.33c0.05,46,37.33,83.29,83.33,83.33h233.33
		c9.2,0,16.67-7.46,16.67-16.67c0-9.2-7.46-16.67-16.67-16.67H183.33c-27.6-0.03-49.97-22.4-50-50V183.33
		c0.03-27.6,22.4-49.97,50-50H300v183.33c0,9.2,7.46,16.67,16.67,16.67h166.67c9.2,0,16.67-7.46,16.67-16.67V133.33h116.67
		c27.6,0.03,49.97,22.4,50,50V450c0,9.2,7.46,16.67,16.67,16.67c9.2,0,16.67-7.46,16.67-16.67V183.33
		C699.94,137.33,662.67,100.06,616.67,100z M466.67,300H333.33V133.33h133.33V300z"/>
	<path class="st0" d="M695.1,628.47l-49.98,49.98c-6.62,6.4-17.17,6.21-23.57-0.41c-6.24-6.46-6.24-16.7,0-23.16l21.55-21.55H516.67
		c-9.2,0-16.67-7.46-16.67-16.67c0-9.2,7.46-16.67,16.67-16.67H643.1l-21.55-21.55c-6.4-6.62-6.21-17.17,0.41-23.57
		c6.46-6.24,16.7-6.24,23.16,0l49.98,49.98C701.6,611.39,701.6,621.94,695.1,628.47z"/>
</g>
</svg>
