<?xml version="1.0" encoding="utf-8"?>
<!-- Generator: Adobe Illustrator 24.3.0, SVG Export Plug-In . SVG Version: 6.00 Build 0)  -->
<svg version="1.1" id="Layer_1" xmlns="http://www.w3.org/2000/svg" xmlns:xlink="http://www.w3.org/1999/xlink" x="0px" y="0px"
	 viewBox="0 0 1000 1000" style="enable-background:new 0 0 1000 1000;" xml:space="preserve">
<style type="text/css">
	.st0{fill:#E7DAEC;}
</style>
<g>
	<g>
		<path class="st0" d="M449.8,891.4c-39.47-1.17-75.98-5.92-111.63-14.5c-32.39-7.79-61.6-20.81-85.91-32.51
			c-35.41-17.05-66.05-38.93-91.07-65.05c-17.32-18.08-29.39-32.59-39.12-47.06c-21.46-31.91-33.05-60.05-36.48-88.54
			c-3.44-28.69-5.13-59.25,5.71-88.33c13.95-37.36,36.25-58.34,68.2-64.16c6.31-1.15,13.08-1.71,20.69-1.71
			c4.41,0,9.02,0.19,14.09,0.57c39.5,2.98,77.58,14.6,114.4,25.84c5.02,1.53,10.05,3.07,15.08,4.58
			c36.68,11.04,74.52,20.1,112.47,26.95c37.54,6.78,68.92,10.04,98.75,10.28l1.02,0c3.87,0,7.63-0.16,11.18-0.49
			c5.09-0.46,8.27-0.99,11.54-2.59c-3.39-2.35-6.71-4.19-9.62-5.72c-4.03-2.13-9.03-4.38-14.86-6.68
			c-10.72-4.21-21.64-8.44-32.2-12.53c-14.09-5.46-28.66-11.11-42.95-16.77l-3.85-1.52c-20.38-8.05-41.45-16.37-60.58-28.25
			c-18.01-11.2-36.89-23.56-52.34-40.62c-25.21-27.83-37.52-60.44-37.65-99.7c-0.1-32.28,4.47-58.55,14.4-82.7
			c13.3-32.38,32.75-58.92,57.8-78.88c41.16-32.78,85.39-54.07,135.2-65.08c12.39-2.74,28.6-4.94,48.18-6.55
			c8.87-0.73,17.96-1.1,27.03-1.1c30.28,0,60.86,4.01,90.89,11.93c27.74,7.31,51.03,16.88,75.54,31.02
			c25.66,14.81,43.54,34.94,56.29,63.34c10.26,22.87,11.04,49.47,2.2,74.9c-8.64,24.83-26.64,40.17-52.07,44.38
			c-4.16,0.69-8.32,1.04-12.36,1.04c-15.21,0-29.45-4.89-42.33-14.53c-10.29-7.7-17.14-19.03-19.29-31.92
			c-2.15-12.91,0.62-26.22,7.81-37.49c4.57-7.16,9.48-14.24,14.24-21.09c3.55-5.11,7.22-10.4,10.7-15.66
			c6.72-10.13,8.81-20.62,6.21-31.16c-1.88-7.57-6.82-13.78-15.53-19.52c-22.53-14.85-45.9-23.84-71.44-27.46
			c-19.33-2.74-30.6-3.97-46.24-3.97c-5.11,0-10.88,0.13-18.14,0.4c-44.84,1.7-77.65,10.71-109.7,30.13
			c-13.59,8.23-27.64,16.74-38.88,28.5c-20.65,21.6-33.16,44.91-38.24,71.27c-3.87,20.04-3.38,40.05,1.46,59.48
			c5.74,23.06,19.6,43.38,42.38,62.12c16.65,13.71,36.75,21.92,56.19,29.86l0.77,0.31c31.61,12.91,68.4,27.88,104.85,42.02
			c33.4,12.95,67.94,26.34,97.34,48.86c1.7,1.3,3.17,2.45,4.44,3.44c2.57,2.01,4.82,3.77,5.71,4.18c1.16-0.51,4.46-2.81,7.39-4.86
			c0.98-0.69,2.03-1.42,3.11-2.17c9.92-6.85,19.5-14.62,28.77-22.14l0.68-0.55c8.52-6.9,17.07-14.08,25.34-21.03
			c17.34-14.56,35.28-29.61,53.95-43.04c29.33-21.08,55.13-33.78,81.21-39.97l0.3-0.08c0.4-0.1,0.82-0.21,1.35-0.32l0.83-0.19
			c1.64-0.38,3.51-0.81,5.38-0.81c3.59,0,6.12,1.62,7.52,4.83c2.21,5.07,1.01,9.73-3.8,14.66c-4.1,4.22-8.63,5.86-14.9,8.14
			l-1.57,0.57c-28.43,10.37-52.74,23.07-74.34,38.82c-18.79,13.7-37.01,30.56-55.7,51.54c-6.08,6.83-12.62,13.42-18.94,19.8
			c-3.96,3.99-8.04,8.11-11.97,12.24c-1.5,1.58-3.29,3.3-5.01,4.96c-1.83,1.77-4.24,4.09-5.15,5.23c0.71,1.16,2.46,3.54,3.9,5.51
			c1.44,1.96,3.06,4.19,4.51,6.28c13.38,19.43,21.02,42.35,23.35,70.08c2.19,26.12,0.01,53.33-6.49,80.9
			c-5.97,25.35-15.94,48.54-29.6,68.91c-22.56,33.63-54.24,59.9-99.69,82.67c-31.06,15.56-65.98,26.28-106.76,32.79
			c-14.56,2.33-29.53,3.29-44,4.22c-6.48,0.42-13.18,0.85-19.75,1.4l-0.11,0.01L449.8,891.4z M355.65,600.09
			c-4.06,0.17-8.55,0.35-13.36,0.54c-12.72,0.49-27.14,1.05-41.75,1.92c-13.32,0.78-28.86,2.55-43.16,9.67
			c-23.53,11.73-37.19,26.45-42.98,46.33c-3.37,11.55-4.1,24.25-2.17,37.74c2.61,18.21,7.01,39.34,19.85,57.93
			c25.08,36.29,58.71,65.25,99.95,86.07c23.44,11.83,49.86,19.45,80.77,23.28c12.36,1.53,24.72,2.3,36.73,2.3
			c17.15,0,34.19-1.58,50.63-4.7c16.65-3.18,33.25-8.63,47.51-13.49c24.65-8.41,47.88-22.96,71-44.5
			c18.33-17.06,32.15-37.48,41.07-60.68c9.82-25.57,12.96-50.59,9.34-74.36c-4.22-27.64-11.65-47.07-24.08-62.99
			c-2.75-3.52-9.8-10.58-12.11-12.81c-1.3,0.28-3.94,0.93-6.15,1.47c-1.14,0.28-2.32,0.57-3.45,0.84
			c-19.34,4.71-39.67,7.22-62.15,7.69c-25.69,0.53-51.96,0.8-78.1,0.8c-11.67,0-23.56-0.05-35.33-0.16
			c-19.65-0.18-39.6-0.94-60.72-1.75C376.96,600.84,366.61,600.45,355.65,600.09z"/>
		<path d="M587.31,110.6c29.96,0,60.57,4.01,90.38,11.87c27.42,7.23,50.25,16.51,75.05,30.82c25.38,14.65,42.87,34.36,55.46,62.43
			c10.44,23.28,10.59,49.11,2.14,73.43c-8.19,23.54-25.24,38.88-50.51,43.06c-4.08,0.67-8.09,1.01-12.03,1.01
			c-14.81,0-28.59-4.75-41.13-14.13c-20.37-15.24-25.33-44.24-10.99-66.73c7.96-12.46,16.75-24.39,24.92-36.72
			c6.6-9.95,9.41-20.88,6.48-32.74c-2.31-9.3-8.83-15.74-16.37-20.71c-22.01-14.51-45.69-24-72.26-27.77
			c-19.86-2.82-31.09-3.99-46.52-3.99c-5.38,0-11.27,0.14-18.22,0.41c-42.46,1.61-76.56,9.76-110.66,30.42
			c-14.02,8.49-27.88,16.89-39.29,28.83c-19.61,20.51-33.32,44.06-38.76,72.27c-3.92,20.31-3.48,40.41,1.48,60.34
			c6.54,26.27,22.52,46.29,43.05,63.18c17.1,14.08,37.33,22.25,57.48,30.48c34.86,14.24,69.77,28.41,104.88,42.03
			c33.86,13.13,67.8,26.34,96.85,48.58c6.92,5.3,10.06,8.09,11.39,8.09c1.18,0,5.75-3.38,11.62-7.44
			c10.22-7.06,19.9-14.94,29.57-22.78c26.37-21.38,51.69-44.21,79.2-64c24.35-17.5,50.65-32.56,80.5-39.65
			c0.48-0.12,0.96-0.25,1.61-0.39c1.77-0.39,3.84-0.96,5.79-0.96c2.31,0,4.45,0.8,5.68,3.63c1.89,4.33,0.85,8.11-3.4,12.47
			c-4.09,4.21-8.56,5.61-15.73,8.23c-26.88,9.81-51.94,22.39-74.83,39.08c-20.61,15.03-38.99,32.72-56.01,51.83
			c-9.85,11.06-20.66,21.25-30.87,31.99c-4.2,4.42-10.87,10.16-10.93,11.49c-0.04,0.91,5.1,7.37,8.99,13.01
			c14.35,20.83,20.9,44.08,23,69.11c2.28,27.2-0.25,53.99-6.44,80.27c-5.72,24.27-15.18,47.18-29.32,68.25
			c-24.99,37.25-59.35,62.17-98.92,82c-33.78,16.92-69.38,26.73-106.18,32.6c-20.97,3.35-42.39,3.83-63.6,5.6
			c-37.67-1.12-74.66-5.64-111.22-14.44c-29.92-7.2-57.95-19.1-85.51-32.37c-33.9-16.32-64.49-37.49-90.49-64.63
			c-14.01-14.62-27.63-30.03-38.9-46.79c-17.86-26.56-32.26-55.3-36.15-87.66c-3.52-29.34-4.95-59.11,5.6-87.39
			c11.76-31.5,31.2-56.43,66.68-62.89c6.63-1.21,13.48-1.68,20.34-1.68c4.67,0,9.34,0.22,13.94,0.57
			c44.56,3.36,86.61,17.57,129.06,30.34c37,11.13,74.61,20.13,112.69,27c32.78,5.92,65.73,10.05,99.09,10.31c0.34,0,0.69,0,1.03,0
			c3.81,0,7.63-0.15,11.37-0.49c6.52-0.59,10.3-1.33,15.04-4.37c-4.33-3.32-8.71-5.77-12.37-7.7c-4.67-2.47-10.12-4.82-15.06-6.77
			c-25.03-9.82-50.15-19.4-75.15-29.3c-21.91-8.67-43.95-17.09-64.11-29.61c-18.71-11.63-36.98-23.77-51.91-40.26
			c-25.29-27.92-37.01-60.79-37.13-98.36c-0.09-28.25,3.44-55.64,14.25-81.93c12.64-30.77,31.27-57.42,57.2-78.08
			c40.46-32.22,83.81-53.51,134.38-64.69c14.85-3.28,32.71-5.26,47.91-6.51C569.31,110.97,578.28,110.6,587.31,110.6 M483.01,601.13
			c-11.76,0-23.52-0.05-35.29-0.16c-28.8-0.27-57.6-1.75-92.08-2.88c-14.63,0.63-34.94,1.26-55.22,2.46
			c-15.12,0.89-30.13,3-43.93,9.88c-20.63,10.28-37.23,24.29-44.01,47.56c-3.72,12.75-4.06,25.78-2.23,38.58
			c2.97,20.74,7.91,41.02,20.18,58.78c26.04,37.68,60.17,66.26,100.69,86.72c25.4,12.82,52.97,19.95,81.43,23.48
			c12.35,1.53,24.68,2.32,36.97,2.32c17.08,0,34.1-1.53,51-4.74c16.2-3.09,32.12-8.22,47.78-13.56
			c27.33-9.32,50.61-25.27,71.72-44.93c18.68-17.39,32.56-37.99,41.57-61.43c9.25-24.09,13.41-49.4,9.45-75.38
			c-3.52-23.05-9.8-45.12-24.48-63.92c-3.23-4.13-12.06-12.85-13.01-13.7c-0.01-0.01-0.03-0.01-0.06-0.01c-0.65,0-6,1.37-10.68,2.5
			c-20.3,4.94-40.98,7.2-61.72,7.63C535.07,600.87,509.04,601.13,483.01,601.13 M587.31,106.6c-9.13,0-18.28,0.37-27.2,1.11
			c-19.67,1.62-35.97,3.83-48.44,6.59c-50.11,11.08-94.6,32.49-136.01,65.47c-25.32,20.18-44.98,46.99-58.41,79.69
			c-10.03,24.39-14.65,50.91-14.55,83.46c0.06,19.4,3.22,37.63,9.38,54.18c6.32,16.98,16,32.74,28.79,46.85
			c15.62,17.25,34.63,29.7,52.76,40.97c19.29,11.98,40.44,20.33,60.9,28.41l3.85,1.52c14.3,5.66,28.87,11.31,42.96,16.77
			c10.56,4.09,21.48,8.33,32.2,12.53c5.77,2.28,10.7,4.49,14.65,6.58c1.9,1,3.99,2.14,6.14,3.46c-1.97,0.51-4.24,0.81-7.3,1.09
			c-3.49,0.32-7.2,0.48-11.01,0.48c-0.33,0-0.67,0-1,0c-29.71-0.23-60.98-3.49-98.41-10.25c-37.87-6.83-75.64-15.88-112.25-26.89
			c-5.03-1.51-10.05-3.04-15.07-4.58c-36.93-11.27-75.12-22.93-114.84-25.92c-5.13-0.39-9.79-0.58-14.24-0.58
			c-7.74,0-14.63,0.57-21.05,1.74c-32.69,5.95-55.5,27.35-69.71,65.43c-10.99,29.47-9.3,60.32-5.82,89.27
			c3.46,28.82,15.16,57.23,36.8,89.42c9.79,14.56,21.92,29.16,39.33,47.33c25.19,26.29,56.02,48.32,91.64,65.47
			c24.4,11.75,53.74,24.82,86.31,32.65c35.78,8.61,72.43,13.37,112.04,14.55l0.23,0.01l0.23-0.02c6.54-0.55,13.23-0.98,19.7-1.39
			c14.53-0.94,29.54-1.9,44.2-4.24c40.98-6.54,76.1-17.32,107.34-32.97c45.77-22.94,77.69-49.42,100.45-83.35
			c13.8-20.57,23.86-43.97,29.89-69.56c6.54-27.77,8.74-55.2,6.53-81.52c-2.36-28.09-10.11-51.32-23.69-71.05
			c-1.46-2.12-3.1-4.36-4.55-6.33c-1.01-1.38-2.18-2.97-3-4.15c1.09-1.14,2.72-2.71,4.02-3.97c1.74-1.67,3.53-3.4,5.07-5.02
			c3.91-4.11,7.99-8.23,11.94-12.21c6.34-6.39,12.9-13.01,19.02-19.88c18.59-20.87,36.7-37.64,55.38-51.26
			c21.44-15.63,45.6-28.24,73.84-38.55l1.57-0.57c6.52-2.37,11.24-4.08,15.66-8.63c5.37-5.51,6.74-11.02,4.2-16.86
			c-1.69-3.89-5.01-6.03-9.35-6.03c-2.09,0-4.16,0.48-5.83,0.86c-0.28,0.07-0.56,0.13-0.83,0.19c-0.53,0.11-0.98,0.23-1.4,0.34
			l-0.31,0.08c-26.29,6.24-52.32,19.05-81.86,40.28c-18.74,13.48-36.7,28.56-54.08,43.14c-8.26,6.94-16.81,14.11-25.31,21
			l-0.72,0.58c-9.23,7.48-18.77,15.22-28.61,22.02c-1.09,0.75-2.13,1.48-3.12,2.17c-2.26,1.58-4.76,3.33-6.2,4.2
			c-1.05-0.72-2.76-2.06-4.54-3.45c-1.28-1-2.75-2.15-4.45-3.45c-29.63-22.69-64.31-36.13-97.84-49.13
			c-36.41-14.13-73.2-29.09-104.81-42l-0.77-0.31c-19.3-7.88-39.27-16.04-55.68-29.55c-22.75-18.71-36-38.11-41.71-61.06
			c-4.76-19.14-5.25-38.86-1.43-58.62c5.01-25.97,17.35-48.95,37.72-70.26c11.06-11.57,24.37-19.64,38.47-28.17
			c31.74-19.23,64.26-28.16,108.74-29.84c7.24-0.27,12.98-0.4,18.07-0.4c15.52,0,26.72,1.22,45.96,3.95
			c25.24,3.58,48.34,12.46,70.62,27.15c8.27,5.45,12.94,11.28,14.69,18.33c2.5,10.11,0.56,19.78-5.93,29.56
			c-3.48,5.25-7.14,10.53-10.68,15.63c-4.76,6.86-9.69,13.96-14.28,21.15c-7.45,11.69-10.33,25.5-8.1,38.89
			c2.23,13.4,9.36,25.18,20.06,33.19c13.23,9.91,27.88,14.93,43.52,14.93c4.15,0,8.41-0.36,12.68-1.06
			c26.2-4.33,44.74-20.13,53.64-45.69c9-25.92,8.2-53.04-2.27-76.38c-12.92-28.81-31.07-49.23-57.11-64.26
			c-24.67-14.23-48.12-23.86-76.03-31.22C648.52,110.64,617.76,106.6,587.31,106.6L587.31,106.6z M483.01,605.13
			c26.15,0,52.45-0.27,78.17-0.8c22.63-0.47,43.1-3,62.58-7.74c1.14-0.28,2.33-0.57,3.47-0.85c1.7-0.42,3.66-0.9,5.03-1.22
			c2.75,2.71,8.76,8.8,11.15,11.86c12.21,15.63,19.51,34.77,23.68,62.06c3.57,23.42,0.46,48.1-9.23,73.34
			c-8.81,22.91-22.45,43.08-40.56,59.94c-22.92,21.34-45.91,35.76-70.29,44.07c-14.19,4.84-30.71,10.26-47.24,13.42
			c-16.31,3.1-33.22,4.67-50.25,4.67c-11.92,0-24.2-0.77-36.48-2.29c-30.68-3.81-56.89-11.36-80.12-23.08
			c-40.94-20.67-74.31-49.41-99.2-85.42c-12.6-18.24-16.94-39.09-19.51-57.07c-1.89-13.21-1.18-25.62,2.11-36.89
			c5.63-19.31,18.96-33.64,41.95-45.1c13.97-6.97,29.27-8.69,42.38-9.47c14.59-0.86,29-1.42,41.71-1.92
			c4.78-0.19,9.26-0.36,13.3-0.53c10.92,0.36,21.25,0.75,31.24,1.13c21.14,0.8,41.1,1.56,60.78,1.75
			C459.45,605.08,471.34,605.13,483.01,605.13L483.01,605.13z"/>
	</g>
</g>
</svg>
