<?xml version="1.0" encoding="utf-8"?>
<!-- Generator: Adobe Illustrator 24.3.0, SVG Export Plug-In . SVG Version: 6.00 Build 0)  -->
<svg version="1.1" id="Layer_1" xmlns="http://www.w3.org/2000/svg" xmlns:xlink="http://www.w3.org/1999/xlink" x="0px" y="0px"
	 viewBox="0 0 800 800" style="enable-background:new 0 0 800 800;" xml:space="preserve">
<style type="text/css">
	.st0{stroke:#000000;stroke-width:5;stroke-miterlimit:10;}
</style>
<path class="st0" d="M147.99,449.98v260.18c0,12.42,10.3,22.72,22.72,22.72h458.28c12.42,0,22.72-10.3,22.72-22.72V449.67
	c57.85-22.72,99.05-78.75,99.05-144.48c0-85.72-69.67-155.38-155.38-155.38c-16.96,0-34.23,3.03-50.58,8.48
	c-36.35-56.64-98.14-91.17-166.29-91.17s-123.88,30.9-160.84,83.3c-92.69-8.18-168.41,64.82-168.41,154.78
	c0,65.73,41.19,121.76,99.05,144.48L147.99,449.98z M193.43,687.45V630.8h412.84v56.64H193.43z M606.27,460.88v124.49H193.43V460.88
	H606.27z M204.33,195.55c5.45,0,10.9,0.61,16.96,1.51c0,0,0.3,0,0.61,0c52.1,10,89.96,55.43,89.96,108.13
	c0,12.42,10.3,22.72,22.72,22.72s22.72-10.3,22.72-22.72c0-62.09-37.26-116.61-92.08-141.45c28.47-32.41,69.36-51.49,113.28-51.49
	c57.85,0,110.25,32.41,136.3,84.51c2.73,5.45,7.57,9.39,13.02,11.51c5.76,1.82,11.81,1.51,17.26-1.21
	c15.75-7.88,33.02-12.12,49.98-12.12c60.58,0,109.95,49.37,109.95,109.95s-49.37,109.95-109.95,109.95H204.33
	c-60.58,0-109.95-49.37-109.95-109.95s49.37-109.95,109.95-109.95V195.55z"/>
</svg>
