<?xml version="1.0" encoding="utf-8"?>
<!-- Generator: Adobe Illustrator 24.3.0, SVG Export Plug-In . SVG Version: 6.00 Build 0)  -->
<svg version="1.1" id="Layer_1" xmlns="http://www.w3.org/2000/svg" xmlns:xlink="http://www.w3.org/1999/xlink" x="0px" y="0px"
	 viewBox="0 0 1000 1000" style="enable-background:new 0 0 1000 1000;" xml:space="preserve">
<g>
	<path d="M914.1,383.47c-2.27-5.21-7.6-3.53-11.47-2.67c-0.65,0.14-1.13,0.27-1.61,0.39c-29.85,7.09-56.15,22.15-80.5,39.65
		c-27.51,19.79-52.83,42.62-79.2,64c-9.67,7.84-19.35,15.72-29.57,22.78c-5.87,4.06-10.44,7.44-11.62,7.44
		c-1.33,0-4.47-2.79-11.39-8.09c-29.05-22.24-62.99-35.45-96.85-48.58c-35.11-13.62-70.02-27.79-104.88-42.03
		c-20.15-8.23-40.38-16.4-57.48-30.48c-20.53-16.89-36.51-36.91-43.05-63.18c-4.96-19.93-5.4-40.03-1.48-60.34
		c5.44-28.21,19.15-51.76,38.76-72.27c11.41-11.94,25.27-20.34,39.29-28.83c34.1-20.66,68.2-28.81,110.66-30.42
		c26.87-1.02,37.95-0.22,64.74,3.58c26.57,3.77,50.25,13.26,72.26,27.77c7.54,4.97,14.06,11.41,16.37,20.71
		c2.93,11.86,0.12,22.79-6.48,32.74c-8.17,12.33-16.96,24.26-24.92,36.72c-14.34,22.49-9.38,51.49,10.99,66.73
		c15.87,11.88,33.75,16.33,53.16,13.12c25.27-4.18,42.32-19.52,50.51-43.06c8.45-24.32,8.3-50.15-2.14-73.43
		c-12.59-28.07-30.08-47.78-55.46-62.43c-24.8-14.31-47.63-23.59-75.05-30.82c-38.8-10.23-78.95-13.93-117.25-10.77
		c-15.2,1.25-33.06,3.23-47.91,6.51c-50.57,11.18-93.92,32.47-134.38,64.69c-25.93,20.66-44.56,47.31-57.2,78.08
		c-10.81,26.29-14.34,53.68-14.25,81.93c0.12,37.57,11.84,70.44,37.13,98.36c14.93,16.49,33.2,28.63,51.91,40.26
		c20.16,12.52,42.2,20.94,64.11,29.61c25,9.9,50.12,19.48,75.15,29.3c4.94,1.95,10.39,4.3,15.06,6.77c3.66,1.93,8.04,4.38,12.37,7.7
		c-4.74,3.04-8.52,3.78-15.04,4.37c-4.08,0.37-8.25,0.52-12.4,0.49c-33.36-0.26-66.31-4.39-99.09-10.31
		c-38.08-6.87-75.69-15.87-112.69-27c-42.45-12.77-84.5-26.98-129.06-30.34c-11.36-0.86-23.14-0.92-34.28,1.11
		c-35.48,6.46-54.92,31.39-66.68,62.89c-10.55,28.28-9.12,58.05-5.6,87.39c3.89,32.36,18.29,61.1,36.15,87.66
		c11.27,16.76,24.89,32.17,38.9,46.79c26,27.14,56.59,48.31,90.49,64.63c27.56,13.27,55.59,25.17,85.51,32.37
		c36.56,8.8,73.55,13.32,111.22,14.44c21.21-1.77,42.63-2.25,63.6-5.6c36.8-5.87,72.4-15.68,106.18-32.6
		c39.57-19.83,73.93-44.75,98.92-82c14.14-21.07,23.6-43.98,29.32-68.25c6.19-26.28,8.72-53.07,6.44-80.27
		c-2.1-25.03-8.65-48.28-23-69.11c-3.89-5.64-9.03-12.1-8.99-13.01c0.06-1.33,6.73-7.07,10.93-11.49
		c10.21-10.74,21.02-20.93,30.87-31.99c17.02-19.11,35.4-36.8,56.01-51.83c22.89-16.69,47.95-29.27,74.83-39.08
		c7.17-2.62,11.64-4.02,15.73-8.23C914.95,391.58,915.99,387.8,914.1,383.47z M661.59,743.21c-9.01,23.44-22.89,44.04-41.57,61.43
		c-21.11,19.66-44.39,35.61-71.72,44.93c-15.66,5.34-31.58,10.47-47.78,13.56c-29.07,5.52-58.46,6.07-87.97,2.42
		c-28.46-3.53-56.03-10.66-81.43-23.48c-40.52-20.46-74.65-49.04-100.69-86.72c-12.27-17.76-17.21-38.04-20.18-58.78
		c-1.83-12.8-1.49-25.83,2.23-38.58c6.78-23.27,23.38-37.28,44.01-47.56c13.8-6.88,28.81-8.99,43.93-9.88
		c20.28-1.2,40.59-1.83,55.22-2.46c34.48,1.13,63.28,2.61,92.08,2.88c37.79,0.34,75.59,0.14,113.37-0.64
		c20.74-0.43,41.42-2.69,61.72-7.63c4.91-1.19,10.57-2.64,10.74-2.49c0.95,0.85,9.78,9.57,13.01,13.7
		c14.68,18.8,20.96,40.87,24.48,63.92C675,693.81,670.84,719.12,661.59,743.21z"/>
</g>
</svg>
