<?xml version="1.0" encoding="utf-8"?>
<!-- Generator: Adobe Illustrator 24.3.0, SVG Export Plug-In . SVG Version: 6.00 Build 0)  -->
<svg version="1.1" id="Layer_1" xmlns="http://www.w3.org/2000/svg" xmlns:xlink="http://www.w3.org/1999/xlink" x="0px" y="0px"
	 viewBox="0 0 1000 187.33" style="enable-background:new 0 0 1000 187.33;" xml:space="preserve">
<style type="text/css">
	.st0{display:none;}
	.st1{display:inline;}
</style>
<g class="st0">
	<path class="st1" d="M914.1-33.53c-2.27-5.21-7.6-3.53-11.47-2.67c-0.65,0.14-1.13,0.27-1.61,0.39
		c-29.85,7.09-56.15,22.15-80.5,39.65c-27.51,19.79-52.83,42.62-79.2,64c-9.67,7.84-19.35,15.72-29.57,22.78
		c-5.87,4.06-10.44,7.44-11.62,7.44c-1.33,0-4.47-2.79-11.39-8.09c-29.05-22.24-62.99-35.45-96.85-48.58
		C556.78,27.77,521.87,13.6,487.01-0.64c-20.15-8.23-40.38-16.4-57.48-30.48C409-48.01,393.02-68.03,386.48-94.3
		c-4.96-19.93-5.4-40.03-1.48-60.34c5.44-28.21,19.15-51.76,38.76-72.27c11.41-11.94,25.27-20.34,39.29-28.83
		c34.1-20.66,68.2-28.81,110.66-30.42c26.87-1.02,37.95-0.22,64.74,3.58c26.57,3.77,50.25,13.26,72.26,27.77
		c7.54,4.97,14.06,11.41,16.37,20.71c2.93,11.86,0.12,22.79-6.48,32.74c-8.17,12.33-16.96,24.26-24.92,36.72
		c-14.34,22.49-9.38,51.49,10.99,66.73c15.87,11.88,33.75,16.33,53.16,13.12c25.27-4.18,42.32-19.52,50.51-43.06
		c8.45-24.32,8.3-50.15-2.14-73.43c-12.59-28.07-30.08-47.78-55.46-62.43c-24.8-14.31-47.63-23.59-75.05-30.82
		c-38.8-10.23-78.95-13.93-117.25-10.77c-15.2,1.25-33.06,3.23-47.91,6.51c-50.57,11.18-93.92,32.47-134.38,64.69
		c-25.93,20.66-44.56,47.31-57.2,78.08c-10.81,26.29-14.34,53.68-14.25,81.93c0.12,37.57,11.84,70.44,37.13,98.36
		c14.93,16.49,33.2,28.63,51.91,40.26c20.16,12.52,42.2,20.94,64.11,29.61c25,9.9,50.12,19.48,75.15,29.3
		c4.94,1.95,10.39,4.3,15.06,6.77c3.66,1.93,8.04,4.38,12.37,7.7c-4.74,3.04-8.52,3.78-15.04,4.37c-4.08,0.37-8.25,0.52-12.4,0.49
		c-33.36-0.26-66.31-4.39-99.09-10.31c-38.08-6.87-75.69-15.87-112.69-27c-42.45-12.77-84.5-26.98-129.06-30.34
		c-11.36-0.86-23.14-0.92-34.28,1.11c-35.48,6.46-54.92,31.39-66.68,62.89c-10.55,28.28-9.12,58.05-5.6,87.39
		c3.89,32.36,18.29,61.1,36.15,87.66c11.27,16.76,24.89,32.17,38.9,46.79c26,27.14,56.59,48.31,90.49,64.63
		c27.56,13.27,55.59,25.17,85.51,32.37c36.56,8.8,73.55,13.32,111.22,14.44c21.21-1.77,42.63-2.25,63.6-5.6
		c36.8-5.87,72.4-15.68,106.18-32.6c39.57-19.83,73.93-44.75,98.92-82c14.14-21.07,23.6-43.98,29.32-68.25
		c6.19-26.28,8.72-53.07,6.44-80.27c-2.1-25.03-8.65-48.28-23-69.11c-3.89-5.64-9.03-12.1-8.99-13.01
		c0.06-1.33,6.73-7.07,10.93-11.49c10.21-10.74,21.02-20.93,30.87-31.99c17.02-19.11,35.4-36.8,56.01-51.83
		c22.89-16.69,47.95-29.27,74.83-39.08c7.17-2.62,11.64-4.02,15.73-8.23C914.95-25.42,915.99-29.2,914.1-33.53z M661.59,326.21
		c-9.01,23.44-22.89,44.04-41.57,61.43c-21.11,19.66-44.39,35.61-71.72,44.93c-15.66,5.34-31.58,10.47-47.78,13.56
		c-29.07,5.52-58.46,6.07-87.97,2.42c-28.46-3.53-56.03-10.66-81.43-23.48c-40.52-20.46-74.65-49.04-100.69-86.72
		c-12.27-17.76-17.21-38.04-20.18-58.78c-1.83-12.8-1.49-25.83,2.23-38.58c6.78-23.27,23.38-37.28,44.01-47.56
		c13.8-6.88,28.81-8.99,43.93-9.88c20.28-1.2,40.59-1.83,55.22-2.46c34.48,1.13,63.28,2.61,92.08,2.88
		c37.79,0.34,75.59,0.14,113.37-0.64c20.74-0.43,41.42-2.69,61.72-7.63c4.91-1.19,10.57-2.64,10.74-2.49
		c0.95,0.85,9.78,9.57,13.01,13.7c14.68,18.8,20.96,40.87,24.48,63.92C675,276.81,670.84,302.12,661.59,326.21z"/>
</g>
<g>
	<path d="M255.45,158.9c-0.01-13.83,0.09-27.67-0.04-41.5c-0.07-7.6-0.12-15.23-0.87-22.78c-1.16-11.56-6.34-20.87-18.11-24.34
		c-27.12-7.98-52.73-5.96-75.24,13.11c-4.54,3.84-9.07,7.69-13.57,11.58c-3.22,2.79-6.22,3.15-10.06,0.63
		c-4.35-2.85-9.13-5.15-13.93-7.2c-10.78-4.6-21.81-8.63-32.47-13.46c-4.3-1.95-8.56-4.8-11.71-8.26
		c-11.44-12.59-7.53-33.02,7.67-43.13c14.91-9.9,31.05-10.47,47.75-6.5c3.13,0.75,6.12,2.55,8.89,4.32
		c4.85,3.12,5.68,7.05,2.73,12.08c-1.54,2.61-3.88,4.84-4.99,7.59c-1.12,2.78-1.99,6.15-1.5,9c0.99,5.72,6.67,9.06,13.29,8.76
		c6.67-0.29,12.28-5.36,13.34-12.02c1.86-11.75-3.05-21.76-14.22-27.34c-17.1-8.54-35.13-11.74-53.81-6.39
		c-15.77,4.52-29.98,11.86-37.53,27.6c-8.13,16.96-6.59,38.01,13.21,49.41c3.7,2.13,7.51,4.11,11.43,5.77
		c6.35,2.69,12.85,5.01,19.24,7.6c1.69,0.68,3.22,1.78,4.83,2.69c-0.11,0.68-0.23,1.36-0.35,2.05c-3.05,0-6.18,0.42-9.15-0.08
		c-11-1.84-22.01-3.7-32.9-6.09c-11.02-2.42-21.81-5.91-32.87-8.15c-11.91-2.42-21.08,2.53-23.97,13.6c-1.72,6.6-2,14.04-0.94,20.8
		c1.92,12.34,9.4,21.99,18.63,30.05c14.41,12.58,31.39,19.04,50.41,20.75c17.97,1.61,34.94-1.15,50.72-10.12
		c22.53-12.81,30.71-39.3,19.55-62.55c-0.69-1.44-0.29-4.11,0.65-5.49c1.76-2.59,4.4-4.56,6.49-6.95
		c10.87-12.43,24.21-20.47,40.71-22.65c9.11-1.2,18.2-1.14,26.83,2.82c4.36,2,6.42,5.42,6.34,10.22
		c-0.14,7.65-4.23,13.41-10.18,17.12c-8.61,5.37-17.86,9.75-26.94,14.34c-5.76,2.92-12.16,4.78-17.48,8.31
		c-16.78,11.17-17.5,36.09-1.54,48.35c9.91,7.62,21.35,8.23,33.16,5.86c7.26-1.45,13.28-5.23,18.71-10.11
		c4.28-3.85,4.33-3.77,7.06,1.08c0.86,1.54,1.93,3.07,3.21,4.28c6.37,6,21.22,7.15,28.46,2.22c0.83-0.57,1.33-1.65,2.15-2.71
		C256.45,170.41,255.45,169.09,255.45,158.9z M131.11,153.33c-7.8,13.13-20.34,19.22-34.83,21.25c-19.34,2.71-36.35-2.64-50.4-16.53
		c-6-5.93-9.96-12.92-10.41-21.46c-0.55-10.51,5.89-18.39,16.42-19.02c10.59-0.63,21.25-0.14,31.87-0.14
		c0.02,0.18,0.04,0.36,0.06,0.54c13.08-0.74,26.18-1.16,39.22-2.38c4.36-0.41,6.91,0.77,8.81,4.26
		C137.99,131.15,137.58,142.44,131.11,153.33z M225.48,156.9c-2.88,6.23-6.84,11.29-13.9,13.17c-8.28,2.2-15.96-1.05-19.96-8.54
		c-6.83-12.75-4.55-33.8,12.49-41.98c7.29-3.5,14.01-8.18,20.95-12.4c3.47-2.1,4.8-1.62,4.95,2.4c0.2,5.24,0.05,10.49,0.05,15.74
		C230.3,136.08,230.14,146.83,225.48,156.9z"/>
	<path d="M707.88,174.65c-6.55-2.47-9.66-7.6-10.71-14.12c-0.6-3.8-0.85-7.68-0.91-11.52c-0.29-18.39,0.09-36.81-0.8-55.17
		c-1.15-23.91-28.37-37.92-48.64-25.16c-5.36,3.38-9.73,8.48-14.13,13.19c-4.32,4.62-5.63,4.75-7.65-1.18
		c-2.39-7.02-7.26-11.42-13.93-13.74c-3.99-1.38-8.29-2.3-12.5-2.5c-13.54-0.64-24.27,5.26-32.95,15.28
		c-3.97,4.59-4.44,4.21-8.4-0.05c-3.67-3.95-7.93-8.1-12.78-10.07c-15.57-6.31-31.76-6.53-47.9-1.94
		c-6.6,1.88-12.52,5.25-16.66,10.97c-3.25,4.51-2.61,10.13,1.21,13.04c3.88,2.96,9.48,2.26,12.84-2.16
		c2.23-2.93,4.26-6.23,5.41-9.69c2.73-8.19,8.39-11.16,16.52-10.66c1.93,0.12,3.9-0.1,5.8,0.17c6.18,0.87,12.19,2.47,15.02,8.76
		c2.84,6.3,1.07,12.21-3.01,17.44c-1.77,2.26-3.82,4.4-6.05,6.2c-9.6,7.74-20.95,12.1-32.28,16.54c-4.2,1.65-8.34,3.71-12.07,6.23
		c-10.97,7.42-13.55,18.48-11.76,30.7c1.66,11.33,8.88,18.58,19.51,22.07c16.02,5.25,30.49,2.22,42.93-9.42
		c3.16-2.96,4.4-2.98,6.2,0.76c3.7,7.72,10.55,9.53,18.1,10.26c3.5,0.33,5.1-1.28,5.09-4.81c-0.08-24.07,0.05-48.14-0.22-72.21
		c-0.13-11.37,4.19-20.29,13.74-26.14c3.12-1.91,7.67-2.88,11.27-2.34c9.25,1.37,16.71,10.98,16.83,21.38
		c0.24,20.47,0.28,40.94-0.09,61.41c-0.15,8.43-3.16,15.78-12.28,18.72c-0.65,0.21-1.29,0.48-1.94,0.72
		c1.42,1.38,2.15,1.98,2.83,1.92c6.42-0.49,12.83-1.1,19.24-1.67c1.85-0.17,3.73-0.63,5.55-0.46c7.37,0.66,14.71,1.57,22.08,2.25
		c1.2,0.11,2.46-0.52,4.23-0.93c-0.91-0.98-1.2-1.55-1.63-1.71c-9.08-3.23-12.16-10.55-12.34-19.21
		c-0.36-17.84-0.35-35.68-0.31-53.52c0.02-9.62,4.11-17.51,10.83-24.32c6.47-6.57,14.03-7.02,20.88-0.79
		c5.41,4.92,8.35,11.22,8.44,18.34c0.24,19.78,0.28,39.57-0.11,59.34c-0.18,8.77-2.79,16.76-12.41,20.07
		c-0.53,0.18-0.88,0.87-1.86,1.9c7.61,1.53,14.59,1.78,21.31-0.35c4.07-1.29,7.55-1.14,11.54,0.07c6.78,2.05,13.75,1.73,20.64,0.5
		c0.07-0.36,0.15-0.72,0.23-1.08C709.18,175.52,708.59,174.91,707.88,174.65z M534.16,155.22c-2.8,6.81-6.56,12.77-14.39,14.84
		c-8.25,2.18-15.46-0.89-19.67-8.28c-8.03-14.11-3.12-34.75,12.28-42c6.94-3.27,13.21-7.97,19.86-11.91c1.31-0.77,2.96-1,4.46-1.48
		c0.42,1.52,1.15,3.03,1.2,4.56c0.16,4.7,0.06,9.4,0.06,14.66C538.25,135.3,538.14,145.53,534.16,155.22z"/>
	<path d="M987.54,171.64c-4.51,0.36-6.64-2.12-7.37-6.14c-0.4-2.16-0.65-4.38-0.65-6.57c-0.06-14.94,0.05-29.88-0.08-44.82
		c-0.06-7.18,0.03-14.42-0.9-21.51c-1.44-10.95-6.86-19.38-17.62-23.66c-14.48-5.76-29.47-5.87-44.44-3.2
		c-20.04,3.58-35.36,14.87-47.31,31.05c-1.12,1.52-2.59,2.79-3.9,4.17c-0.43-0.19-0.87-0.38-1.31-0.58
		c-0.23-1.98-0.56-3.95-0.65-5.94c-0.35-8-0.37-16.02-1.02-23.99c-0.36-4.51-2.04-5.49-6.05-4.36c-9.54,2.7-19.04,5.55-28.53,8.45
		c-1.22,0.37-2.24,1.38-4.1,2.58c1.78,0.41,2.43,0.63,3.1,0.71c8.49,1,10.43,2.94,11.16,11.35c0.16,1.92,0.2,3.86,0.2,5.8
		c0,14.38,0.03,28.77-0.06,43.16c-0.03,6.35-0.03,12.73-0.56,19.06c-0.64,7.65-3.37,14.27-11.17,17.49
		c-0.73,0.3-1.41,0.71-2.12,1.07c0.24,0.45,0.48,0.9,0.72,1.35c7.4,1.18,14.74,1.28,22.17-0.93c2.29-0.69,5.13-0.75,7.42-0.08
		c7.32,2.15,14.59,1.91,21.93,1.09c0.12-0.43,0.24-0.86,0.36-1.3c-1.01-0.57-1.98-1.24-3.04-1.69c-4.36-1.86-7.33-5.11-8.54-9.57
		c-1.03-3.82-1.74-7.84-1.85-11.8c-0.26-9.81,0.38-19.67-0.25-29.45c-0.52-8,2.04-14.59,6.42-20.85c0.79-1.14,1.51-2.33,2.35-3.43
		c17.21-22.64,39.94-32.82,68.29-29.78c12.84,1.37,18.31,12.75,11.37,23.66c-2.25,3.53-5.45,6.66-8.79,9.23
		c-9.28,7.17-20.31,10.94-30.98,15.48c-5.98,2.55-12.11,5.78-16.79,10.17c-11.99,11.23-10.69,32.74,1.85,43.26
		c9.57,8.02,20.78,8.98,32.47,7.27c8.33-1.21,15.26-5.37,21.28-11.18c3-2.9,4-2.41,6.27,1.04c1.76,2.68,3.89,5.71,6.61,7.07
		c7.42,3.71,15.32,4.51,23.14,0.82c1.47-0.69,2.66-1.98,4.8-3.62C989.29,172.02,988.4,171.57,987.54,171.64z M951.9,150.13
		c-1.03,4.79-3.68,9.61-6.75,13.49c-8.45,10.7-24.08,8.52-29.93-3.72c-6.42-13.41-2.79-33.42,13.74-40.95
		c6.98-3.18,13.29-7.81,19.96-11.68c1.24-0.72,3.38-1.76,3.96-1.27c1.03,0.85,1.56,2.74,1.63,4.23c0.2,4.27,0.07,8.56,0.07,12.84
		c0.31,0.04,0.62,0.08,0.93,0.12C954.38,132.19,953.81,141.3,951.9,150.13z"/>
	<path d="M396.61,176.88c-1.63,0.56-2.47,1.11-3.31,1.09c-7.54-0.12-15.17,1.03-22.53-2.04c-1.66-0.69-3.97,0.14-5.98,0.31
		c-6.42,0.55-12.84,1.15-19.26,1.65c-0.56,0.05-1.16-0.54-2.34-1.13c1.22-0.86,1.96-1.62,2.87-1.98
		c7.27-2.86,10.01-8.89,10.66-15.96c0.6-6.59,0.62-13.25,0.67-19.89c0.11-12.73,0.11-25.46,0.04-38.19
		c-0.05-8.51-2.5-16.03-9.37-21.67c-7.68-6.32-16.65-5.76-23.79,1.16c-7.38,7.15-11.1,15.55-10.97,25.88
		c0.22,16.18,0.03,32.37,0.24,48.56c0.12,9.23,2.6,17.3,12.5,20.78c0.34,0.12,0.56,0.56,1.18,1.22c-0.89,0.5-1.62,1.25-2.35,1.25
		c-7.42,0-14.89,1.02-22.16-1.77c-1.95-0.75-4.5,0.02-6.77,0.19c-6.84,0.49-13.67,1.05-20.51,1.51c-0.44,0.03-0.91-0.51-2.03-1.18
		c1.33-0.84,2.2-1.62,3.22-2.01c6.8-2.6,9.6-8.18,10.32-14.8c0.69-6.3,0.75-12.69,0.79-19.04c0.11-15.08,0.04-30.17,0.03-45.25
		c0-1.8,0.02-3.6-0.13-5.39c-0.69-8.33-3.08-10.57-11.38-10.86c-0.77-0.03-1.54-0.27-3.69-0.66c2.1-1.31,3.12-2.3,4.32-2.66
		c9.51-2.85,19.04-5.63,28.59-8.33c4.13-1.17,5.51-0.27,6.32,3.99c0.51,2.71,0.65,5.49,1.15,8.2c0.66,3.6,2.27,4.13,5,1.7
		c2.17-1.93,4.17-4.05,6.36-5.95c12.11-10.56,25.7-12.27,40.12-5.79c13.5,6.08,17.49,18.04,17.7,31.69
		c0.27,17.99,0.17,35.98,0.4,53.96c0.08,5.75,1.33,11.41,5.5,15.66C390.16,173.3,393.16,174.63,396.61,176.88z"/>
	<path d="M817.47,105.58c-10.41-44.14-57.05-48.99-82.06-31.77c-19.28,13.26-28.63,38.74-23.2,63.09
		c6.85,30.66,36.4,48.66,66.45,40.46c23.69-6.46,40.65-29.74,41.15-55.86C819.05,116.19,818.7,110.79,817.47,105.58z M785.98,155.4
		c-1.49,3.39-3.23,6.75-5.36,9.76c-9.95,14.06-25.71,12.79-32.86-3.01c-3.48-7.7-6.52-15.93-7.81-24.23
		c-3.07-19.75-1.13-39.06,8.6-57.08c7.92-14.67,24.78-15.76,34.15-2.03c1.38,2.03,2.46,4.3,3.46,6.56
		c5.02,11.38,5.86,23.46,5.93,38.55C792.26,132.89,790.78,144.47,785.98,155.4z"/>
	<path d="M463.58,167.57c-0.68,1.3-1.03,3.28-2.1,3.81c-10.89,5.45-22.32,8.81-34.68,7.48c-8.82-0.96-15.36-7.87-16.82-17.92
		c-0.61-4.21-0.86-8.52-0.88-12.78c-0.08-23.23-0.03-46.46-0.04-69.69c-0.01-5.77-0.94-6.63-6.76-6.71
		c-2.36-0.04-4.72-0.28-7.09-0.43c-0.18-0.59-0.36-1.18-0.55-1.77c19.01-7.97,29.8-23.43,37.75-41.49c0.51,0.14,1.03,0.28,1.54,0.41
		c0.28,1.57,0.79,3.13,0.81,4.69c0.08,9.41,0.03,18.81,0.07,28.21c0.01,5.2,1.08,6.23,6.37,6.26c3.73,0.03,7.48-0.21,11.19,0.1
		c1.61,0.13,3.14,1.34,4.71,2.05c-1.64,0.66-3.25,1.77-4.93,1.89c-3.85,0.29-7.73,0.06-11.6,0.11c-4.52,0.05-5.74,1.2-5.75,5.59
		c-0.01,24.47-0.06,48.95,0.11,73.42c0.02,3.53,0.71,7.18,1.79,10.55c2.17,6.78,7.76,9.73,14.66,8.03c2.66-0.65,5.16-2.03,7.82-2.6
		C460.55,166.49,462.11,167.27,463.58,167.57z"/>
</g>
</svg>
